<svg xmlns="http://www.w3.org/2000/svg" viewBox="0 0 200 200">
  <rect x="0" y="0" width="200" height="200" rx="44" fill="#0d0d0f"/>
  <rect x="26" y="72" width="148" height="56" rx="28" fill="#1a1a1d"/>
  <path d="M54,72 L100,72 L100,128 L54,128 A28,28 0 0,1 54,72 Z" fill="#ff453a"/>
  <ellipse cx="54" cy="100" rx="28" ry="28" fill="#ff453a"/>
  <path d="M100,72 L148,72 A28,28 0 0,1 148,128 L100,128 Z" fill="rgba(255,255,255,0.10)"/>
  <ellipse cx="148" cy="100" rx="28" ry="28" fill="rgba(255,255,255,0.10)"/>
  <line x1="100" y1="72" x2="100" y2="128" stroke="#0d0d0f" stroke-width="3"/>
  <line x1="54" y1="88" x2="54" y2="112" stroke="white" stroke-width="7" stroke-linecap="round"/>
  <line x1="40" y1="100" x2="68" y2="100" stroke="white" stroke-width="7" stroke-linecap="round"/>
  <text x="148" y="116" font-size="40" font-weight="700" font-family="-apple-system,sans-serif" fill="rgba(255,255,255,0.45)" text-anchor="middle">T</text>
</svg>
